<svg xmlns="http://www.w3.org/2000/svg" width="2095.635" height="1052.248" viewBox="0 0 2095.635 1052.248">
  <g id="グループ_40" data-name="グループ 40" transform="translate(166 17)">
    <g id="グループ_39" data-name="グループ 39">
      <path id="_1" data-name="1" d="M421.4,6.092c60.913,40.1,121.826,84.131,126.8,133.177,4.558,48.689-46.824,102.389-95.306,141.412s-94.063,63.009-142.958,78.4c-49.31,15.394-101.936,22.2-162.02,16.468-60.5-5.728-128.041-23.986-171.55-65.873-43.095-41.528-61.741-106.685-47.653-165.4C-57.61,85.569-10.786,33.3,45.983-7.154c57.183-40.812,125.14-69.811,189.368-66.231S360.492-34,421.4,6.092Z" transform="translate(1310.918 56.683)" fill="rgba(28,117,188,0.05)"/>
      <g id="グループ_38" data-name="グループ 38">
        <g id="グループ_37" data-name="グループ 37">
          <path id="_1-2" data-name="1" d="M912.376,30.358c121.048,52.293,242.1,109.721,251.977,173.686,9.058,63.5-93.05,133.533-189.394,184.425S788.034,470.643,690.867,490.72C592.876,510.8,488.3,519.667,368.9,512.2c-120.224-7.47-254.447-31.282-340.91-85.909-85.639-54.16-122.695-139.136-94.7-215.707,27.174-76.571,120.224-144.739,233.037-197.5C279.964-40.144,415.01-77.963,542.645-73.294S791.328-21.935,912.376,30.358Z" transform="translate(764.721 520.424)" fill="rgba(28,117,188,0.05)"/>
          <g id="グループ_36" data-name="グループ 36">
            <path id="_3" data-name="3" d="M719.475,204.88c51.69,153.6-32.715,329.06-164.23,398.012-130.861,69.512-308.177,32.514-433.8-49.331C-4.84,471.716-79.43,344.464-42.789,209.365-6.8,74.265,141.07-68.122,309.88-73.728,478.036-79.895,667.13,51.281,719.475,204.88Z" transform="translate(-113.873 236.908)" fill="rgba(28,117,188,0.05)"/>
            <path id="_5" data-name="5" d="M243.39,168c-46.608,70.434-231.4,71.046-277.351.612C-80.241,98.18,12.647-42.994,105.207-43.3,197.767-43.3,289.67,97.261,243.39,168Z" transform="translate(490.242 725.809)" fill="rgba(28,117,188,0.05)"/>
          </g>
        </g>
      </g>
    </g>
    <path id="_4" data-name="4" d="M273.75-23.743c37.161,38.474,46.2,98.467,31.637,153.461-14.814,54.994-52.98,105.205-107.969,129.55-54.989,24.562-126.3,23.258-175.01-3.043S-52.416,178.19-63.966,126.239C-75.265,74.289-72.252,21.9-41.619-15.266S47.267-74.39,109.286-76.781C171.054-79.172,236.589-62.217,273.75-23.743Z" transform="translate(1030.005 287.002)" fill="rgba(28,117,188,0.05)"/>
  </g>
</svg>
