<svg xmlns="http://www.w3.org/2000/svg" width="1209.635" height="958.037" viewBox="0 0 1209.635 958.037">
  <g id="グループ_42" data-name="グループ 42" transform="translate(509 -1637.211)">
    <path id="_3" data-name="3" d="M772.894,142.8c55.268,119.4-34.98,255.794-175.6,309.393-139.92,54.035-329.513,25.274-463.836-38.347-135.023-63.622-214.778-162.54-175.6-267.56C-3.665,41.267,154.445-69.417,334.943-73.775,514.741-78.568,716.926,23.4,772.894,142.8Z" transform="translate(-456.873 1711.148)" fill="rgba(28,117,188,0.05)"/>
    <path id="_1" data-name="1" d="M482.224,30.358c68.362,52.293,136.724,109.721,142.3,173.686,5.116,63.5-52.55,133.533-106.961,184.425S412,470.643,357.126,490.72c-55.341,20.077-114.4,28.948-181.834,21.477-67.9-7.47-143.7-31.282-192.53-85.909C-65.6,372.127-86.529,287.152-70.718,210.58c15.347-76.571,67.9-144.739,131.608-197.5,64.177-53.226,140.444-91.045,212.527-86.376S413.862-21.935,482.224,30.358Z" transform="translate(75.79 2080.424)" fill="rgba(28,117,188,0.05)"/>
  </g>
</svg>
