<svg xmlns="http://www.w3.org/2000/svg" width="918.419" height="864.859" viewBox="0 0 918.419 864.859">
  <g id="グループ_43" data-name="グループ 43" transform="translate(402 72.029)">
    <path id="_3" data-name="3" d="M576.565,153.24c42.116,125.151-26.656,268.115-133.813,324.3-106.624,56.637-251.1,26.492-353.458-40.194C-13.6,370.655-74.373,266.971-44.519,156.894-15.2,46.816,105.288-69.2,242.832-73.767,379.844-78.791,533.915,28.089,576.565,153.24Z" transform="translate(-349.873 1.908)" fill="rgba(28,117,188,0.05)"/>
    <path id="_1" data-name="1" d="M354.513,12.382c52.72,43.258,105.44,90.765,109.743,143.678,3.945,52.528-40.526,110.462-82.487,152.562s-81.411,67.977-123.73,84.585c-42.678,16.608-88.225,23.946-140.228,17.767C65.451,404.794,6.993,385.1-30.664,339.907c-37.3-44.8-53.437-115.1-41.243-178.439C-60.073,98.126-19.547,41.736,29.587-1.908c49.492-44.03,108.309-75.315,163.9-71.453S301.793-30.876,354.513,12.382Z" transform="translate(51.918 379.683)" fill="rgba(28,117,188,0.05)"/>
  </g>
</svg>
